<?xml version="1.0" standalone="no"?>
<!DOCTYPE svg PUBLIC "-//W3C//DTD SVG 20010904//EN"
 "http://www.w3.org/TR/2001/REC-SVG-20010904/DTD/svg10.dtd">
<svg version="1.0" xmlns="http://www.w3.org/2000/svg"
 width="600.000000pt" height="600.000000pt" viewBox="0 0 600.000000 600.000000"
 preserveAspectRatio="xMidYMid meet">
<metadata>
Created by potrace 1.11, written by Peter Selinger 2001-2013
</metadata>
<g transform="translate(0.000000,600.000000) scale(0.100000,-0.100000)"
fill="#000000" stroke="none">
<path d="M2795 5994 c-147 -14 -246 -28 -360 -49 -1197 -224 -2157 -1184
-2380 -2380 -42 -229 -49 -311 -49 -565 0 -254 7 -336 49 -565 223 -1196 1184
-2157 2380 -2380 229 -42 311 -49 565 -49 254 0 336 7 565 49 1196 223 2157
1184 2380 2380 42 229 49 311 49 565 0 254 -7 336 -49 565 -191 1024 -931
1895 -1912 2250 -218 80 -409 126 -653 161 -100 14 -501 26 -585 18z m595
-323 c404 -62 775 -204 1105 -424 159 -106 257 -187 415 -346 428 -429 677
-931 767 -1546 12 -88 17 -183 17 -355 0 -172 -5 -267 -17 -355 -91 -618 -340
-1118 -772 -1550 -432 -432 -932 -681 -1550 -772 -167 -24 -543 -24 -710 0
-618 91 -1118 340 -1550 772 -432 432 -681 932 -772 1550 -24 167 -24 543 0
710 91 618 340 1118 772 1550 468 468 1023 725 1705 789 111 10 459 -4 590
-23z"/>
<path d="M2005 4033 c-211 -76 -272 -336 -115 -493 61 -61 119 -85 210 -85 91
0 149 24 210 85 61 61 85 119 85 210 0 91 -24 149 -85 210 -80 80 -203 109
-305 73z"/>
<path d="M3805 4033 c-211 -76 -272 -336 -115 -493 61 -61 119 -85 210 -85 91
0 149 24 210 85 61 61 85 119 85 210 0 91 -24 149 -85 210 -80 80 -203 109
-305 73z"/>
<path d="M1295 3000 c-60 -4 -134 -8 -164 -9 l-54 -1 7 -102 c31 -475 227
-910 561 -1243 216 -217 453 -363 750 -464 393 -132 817 -132 1210 0 297 101
534 247 750 464 333 333 530 768 561 1241 l7 101 -109 6 c-60 4 -162 9 -226
13 l-118 7 0 -50 c0 -76 -19 -207 -46 -313 -121 -487 -478 -878 -949 -1038
-170 -58 -280 -76 -475 -76 -195 0 -305 18 -475 76 -279 95 -538 286 -712 523
-60 83 -151 252 -188 350 -52 139 -95 355 -95 477 l0 48 -62 -2 c-35 -1 -112
-5 -173 -8z"/>
</g>
</svg>
